<?xml version="1.0" encoding="UTF-8"?>
<!-- Generator: Adobe Illustrator 17.1.0, SVG Export Plug-In . SVG Version: 6.00 Build 0)  -->
<!DOCTYPE svg PUBLIC "-//W3C//DTD SVG 1.1//EN" "http://www.w3.org/Graphics/SVG/1.1/DTD/svg11.dtd">
<svg version="1.1" id="Layer_1" xmlns="http://www.w3.org/2000/svg" xmlns:xlink="http://www.w3.org/1999/xlink" x="0px" y="0px" viewBox="0 0 100 100" enable-background="new 0 0 100 100" xml:space="preserve">
<g>
	
		<linearGradient id="SVGID_1_" gradientUnits="userSpaceOnUse" x1="32.6252" y1="99.7457" x2="101.4954" y2="30.8755" gradientTransform="matrix(1 0 0 1 -1.9997 1.260884e-04)">
		<stop offset="0" style="stop-color:#58BBEA"/>
		<stop offset="0.1917" style="stop-color:#5DB3E4"/>
		<stop offset="0.4905" style="stop-color:#699DD4"/>
		<stop offset="0.8574" style="stop-color:#7D79BA"/>
		<stop offset="1" style="stop-color:#8669AE"/>
	</linearGradient>
	<path fill="url(#SVGID_1_)" d="M83.166,18.869c-0.372-0.399-0.742-0.8-1.131-1.189c-0.388-0.388-0.789-0.759-1.188-1.131   l-1.132,1.131l-1.188,1.188l-3.762,3.76l-0.125,0.125l-2.195,2.194L68.64,28.75l0,0l-2.321,2.319   c0.411,0.36,0.826,0.713,1.216,1.102c0.39,0.39,0.744,0.806,1.104,1.217c3.917,4.467,6.078,10.118,6.078,16.113   c0,6.545-2.551,12.699-7.182,17.328c-4.631,4.628-10.789,7.178-17.339,7.178c-5.998,0-11.653-2.16-16.122-6.075l-0.634,0.633   l-1.687,1.686c5.093,4.531,11.568,7.036,18.442,7.036c7.426,0,14.408-2.891,19.659-8.139c5.252-5.248,8.143-12.226,8.143-19.647   c0-6.871-2.505-13.342-7.039-18.432l3.804-3.802c5.542,6.103,8.575,13.934,8.575,22.234c0,8.847-3.447,17.164-9.707,23.42   c-6.26,6.256-14.583,9.702-23.435,9.702c-8.304,0-16.14-3.031-22.247-8.57l-2.321,2.319c6.728,6.157,15.387,9.531,24.567,9.531   c9.729,0,18.876-3.786,25.756-10.663c6.88-6.875,10.668-16.016,10.668-25.739c0-9.176-3.376-17.83-9.536-24.553l3.761-3.759h0   c15.127,16.343,14.756,41.934-1.131,57.812C71.83,86.88,61.347,91.22,50.197,91.22c-10.601,0-20.594-3.93-28.329-11.088   l-1.189,1.188l-1.132,1.131C27.903,90.228,38.718,94.5,50.197,94.5c12.027,0,23.334-4.68,31.839-13.18   C99.202,64.163,99.572,36.493,83.166,18.869z"/>
	<g>
		
			<linearGradient id="SVGID_2_" gradientUnits="userSpaceOnUse" x1="1.9526" y1="69.0694" x2="69.1487" y2="1.8732" gradientTransform="matrix(1 0 0 1 -1.9997 1.260884e-04)">
			<stop offset="0" style="stop-color:#ABCB37"/>
			<stop offset="0.2693" style="stop-color:#A9CB38"/>
			<stop offset="0.424" style="stop-color:#A0C93B"/>
			<stop offset="0.5496" style="stop-color:#92C741"/>
			<stop offset="0.6598" style="stop-color:#7EC449"/>
			<stop offset="0.7598" style="stop-color:#65C054"/>
			<stop offset="0.8524" style="stop-color:#45BB61"/>
			<stop offset="0.9376" style="stop-color:#20B570"/>
			<stop offset="1" style="stop-color:#00B07D"/>
		</linearGradient>
		<path fill="url(#SVGID_2_)" d="M74.639,22.753l0.125-0.125c-6.727-6.157-15.387-9.531-24.567-9.531    c-9.729,0-18.877,3.786-25.756,10.663c-6.88,6.875-10.669,16.016-10.669,25.739c0,9.175,3.376,17.83,9.537,24.553l-3.761,3.759    C4.421,61.469,4.792,35.878,20.679,19.999C28.563,12.12,39.046,7.78,50.197,7.78c10.601,0,20.595,3.93,28.33,11.088l-3.762,3.76    l3.762-3.76l1.188-1.188l1.132-1.131C72.491,8.772,61.675,4.5,50.197,4.5c-12.027,0-23.334,4.68-31.838,13.18    C1.191,34.837,0.821,62.508,17.227,80.131c0.372,0.399,0.742,0.8,1.131,1.189c0.388,0.388,0.789,0.759,1.188,1.131l1.132-1.131    l1.189-1.188l3.762-3.76l2.321-2.319l3.804-3.802l1.687-1.686l0.634-0.633c-0.411-0.36-0.827-0.713-1.217-1.103    c-0.39-0.39-0.744-0.805-1.104-1.216c-3.917-4.466-6.078-10.118-6.078-16.112c0-6.546,2.551-12.7,7.182-17.329    c4.631-4.628,10.789-7.178,17.339-7.178c5.999,0,11.653,2.16,16.122,6.075l2.321-2.319c-5.093-4.532-11.568-7.036-18.443-7.036    c-7.426,0-14.408,2.891-19.659,8.139c-5.251,5.248-8.143,12.226-8.143,19.647c0,6.871,2.506,13.343,7.04,18.432l-3.804,3.802    c-5.542-6.103-8.575-13.934-8.575-22.233c0-8.848,3.447-17.165,9.708-23.422c6.26-6.256,14.582-9.702,23.435-9.702    c8.303,0,16.14,3.031,22.246,8.57L68.64,28.75l0,0l3.804-3.802L74.639,22.753z"/>
	</g>
</g>
</svg>