<?xml version="1.0" encoding="UTF-8" standalone="no"?>
<!DOCTYPE svg PUBLIC "-//W3C//DTD SVG 20010904//EN" "http://www.w3.org/TR/2001/REC-SVG-20010904/DTD/svg10.dtd">
<svg version="1.0" xmlns="http://www.w3.org/2000/svg" width="1024.000000pt" height="1024.000000pt" viewBox="0 0 1024.000000 1024.000000" preserveAspectRatio="xMidYMid meet">
<metadata>
Created by potrace 1.11, written by Peter Selinger 2001-2013
</metadata>
<g transform="translate(0.000000,1024.000000) scale(0.100000,-0.100000)" fill="#000000" stroke="none">
<path d="M4694 9935 c-1299 -123 -2449 -725 -3285 -1720 -579 -689 -962 -1560 -1078 -2455 -52 -398 -56 -833 -10 -1215 157 -1326 856 -2528 1930 -3322 678 -502 1462 -812 2314 -914 220 -27 677 -37 906 -20 932 69 1800 390 2539 940 372 277 733 638 1005 1006 539 728 864 1599 935 2509 22 281 11 686 -26 986 -186 1498 -1079 2830 -2406 3592 -559 321 -1171 519 -1858 604 -184 22 -769 28 -966 9z m941 -369 c713 -89 1342 -315 1930 -694 168 -109 500 -366 572 -444 l22 -24 -198 -198 -198 -198 -79 69 c-515 451 -1159 761 -1844 887 -262 48 -404 60 -715 60 -311 0 -449 -11 -715 -60 -804 -148 -1531 -540 -2106 -1136 -640 -664 -1010 -1491 -1085 -2423 -14 -183 -7 -569 15 -745 97 -788 412 -1505 920 -2094 l77 -90 -198 -198 -198 -199 -56 59 c-222 234 -474 606 -653 962 -264 528 -418 1071 -465 1653 -16 187 -14 587 4 773 79 832 380 1618 868 2269 248 330 599 679 927 922 643 476 1423 777 2205 853 61 5 128 12 150 14 106 10 697 -3 820 -18z m-95 -920 c729 -90 1366 -372 1922 -851 l47 -40 -201 -201 -201 -202 -111 90 c-410 331 -892 544 -1421 629 -188 30 -576 37 -775 15 -712 -82 -1336 -390 -1832 -904 -309 -321 -545 -710 -682 -1126 -166 -503 -195 -1058 -82 -1579 99 -457 319 -906 617 -1260 l68 -82 -202 -203 -202 -203 -38 43 c-332 380 -595 858 -737 1343 -47 163 -92 379 -117 565 -26 192 -26 678 0 870 78 582 269 1089 588 1560 281 415 682 794 1114 1054 442 266 958 438 1460 486 61 5 128 12 150 14 87 9 517 -4 635 -18z m3002 -636 c615 -734 968 -1590 1048 -2545 13 -154 13 -546 0 -700 -110 -1310 -748 -2463 -1795 -3247 -625 -468 -1349 -754 -2160 -854 -176 -21 -647 -30 -845 -15 -372 28 -747 104 -1100 221 -397 133 -847 366 -1191 617 -124 89 -346 271 -386 315 l-22 24 197 197 198 198 90 -77 c597 -514 1304 -822 2114 -920 205 -25 668 -26 870 -1 779 96 1448 377 2042 859 152 123 451 424 574 578 465 582 735 1215 835 1955 26 193 36 604 20 800 -71 863 -399 1640 -960 2280 l-52 59 198 198 197 197 24 -22 c13 -12 60 -65 104 -117z m-3103 -285 c373 -46 751 -178 1061 -370 234 -145 510 -389 674 -595 247 -310 439 -709 520 -1080 70 -322 78 -712 20 -1030 -22 -126 -79 -335 -120 -447 -86 -235 -255 -532 -411 -727 -141 -176 -381 -399 -568 -528 -317 -220 -703 -372 -1095 -433 -142 -23 -504 -31 -656 -16 -486 50 -933 226 -1324 523 -200 151 -320 269 -479 468 -484 606 -669 1399 -510 2175 136 657 555 1269 1127 1647 351 231 765 377 1192 421 104 11 457 6 569 -8z m2468 -399 c360 -445 609 -987 714 -1556 69 -372 77 -799 23 -1170 -96 -657 -370 -1266 -799 -1775 -125 -149 -352 -369 -508 -493 -528 -421 -1143 -673 -1842 -754 -143 -16 -597 -16 -740 0 -743 86 -1381 360 -1937 831 l-78 66 201 201 202 202 108 -88 c413 -333 895 -546 1424 -631 168 -27 548 -37 731 -20 296 28 597 103 867 215 852 354 1511 1106 1742 1990 71 270 98 486 98 771 -1 556 -137 1054 -420 1527 -72 121 -219 326 -296 413 l-36 40 202 202 202 203 20 -24 c11 -13 66 -80 122 -150z"/>
</g>
</svg>