<?xml version="1.0" encoding="UTF-8"?>
<!-- Generator: Adobe Illustrator 22.1.0, SVG Export Plug-In . SVG Version: 6.00 Build 0)  -->
<svg version="1.1" id="Layer_1" xmlns="http://www.w3.org/2000/svg" xmlns:xlink="http://www.w3.org/1999/xlink" x="0px" y="0px" viewBox="0 0 100 100" style="enable-background:new 0 0 100 100;" xml:space="preserve">
<style type="text/css">
	.st0{fill:#FFFFFF;}
	.st1{fill:url(#path-1_2_);}
</style>
<rect class="st0" width="100" height="100"/>
<title>Use cases &amp; benefits/Headset &amp; heart - Linear</title>
<desc>Created with Sketch.</desc>
<g id="Illustrated-icons">
	<g id="Illustrated-Icons---Use-cases_x2C_-benefits_x2C_-_x26_-other-concepts" transform="translate(-260.000000, -1440.000000)">
		<g id="Icons" transform="translate(20.000000, 120.000000)">
			
				<g id="Illustrated-icons_x2F_Use-cases-_x26_-benefits_x2F_Headset-_x26_-heart_x2F_Linear" transform="translate(240.000000, 1320.000000)">
				<g id="Mask">
					
						<linearGradient id="path-1_2_" gradientUnits="userSpaceOnUse" x1="-2274" y1="71.447" x2="-2273" y2="71.447" gradientTransform="matrix(-80.5 0 0 79.75 -182967 -5648.5)">
						<stop offset="5.000000e-02" style="stop-color:#55BBEB"/>
						<stop offset="0.95" style="stop-color:#06B07D"/>
					</linearGradient>
					<path id="path-1_1_" class="st1" d="M56.3,43.5c1,0,2,0.2,2.9,0.6c2.1,0.9,3.6,2.5,4.3,4.5c0.7,2,0.6,4.4-0.3,6.5       c-3.4,8.3-12.3,12.6-13.7,13.3c-1.4-0.7-10.3-5-13.7-13.3c-0.9-2.2-1-4.5-0.3-6.5c0.7-2.1,2.2-3.7,4.3-4.5       c3.4-1.4,7-0.3,9.4,2.8c0.2,0.3,0.6,0.3,0.8,0C51.6,44.7,53.9,43.5,56.3,43.5z M49.5,69.5c0.1,0,0.1,0,0.2,0       c0.4-0.2,10.6-4.5,14.4-13.9c1-2.4,1.1-5,0.4-7.2c-0.8-2.4-2.5-4.2-4.9-5.2c-3.6-1.5-7.5-0.5-10.2,2.6       c-2.6-3.1-6.5-4.1-10.1-2.6c-2.3,1-4.1,2.8-4.9,5.2c-0.8,2.3-0.6,4.8,0.4,7.2c3.9,9.4,14,13.7,14.4,13.9       C49.4,69.5,49.4,69.5,49.5,69.5z M34.5,85.5c0.3,0,0.5-0.2,0.5-0.5s-0.2-0.5-0.5-0.5C23.7,84.5,15,75.8,15,65       c0-0.3-0.2-0.5-0.5-0.5S14,64.7,14,65C14,76.3,23.2,85.5,34.5,85.5z M44.5,81.8c1.1,0,2,0.9,2,2v2.5c0,1.1-0.9,2-2,2h-5       c-1.1,0-2-0.9-2-2v-2.5c0-1.1,0.9-2,2-2H44.5z M39.5,89.3h5c1.7,0,3-1.3,3-3v-2.5c0-1.7-1.3-3-3-3h-5c-1.7,0-3,1.3-3,3v2.5       C36.5,87.9,37.8,89.3,39.5,89.3z M12.5,48c1.1,0,2,0.9,2,2v10c0,1.1-0.9,2-2,2s-2-0.9-2-2V50C10.5,48.9,11.4,48,12.5,48z        M12.5,63c1.7,0,3-1.3,3-3V50c0-1.7-1.3-3-3-3s-3,1.3-3,3v10C9.5,61.7,10.8,63,12.5,63z M24.5,65.5c0.1,0,0.2,0,0.2-0.1       c0.2-0.1,0.3-0.3,0.3-0.4V45c0-0.2-0.1-0.4-0.3-0.4c-0.2-0.1-0.4-0.1-0.5,0l-7.5,5c-0.2,0.2-0.3,0.5-0.1,0.7       c0.2,0.2,0.5,0.3,0.7,0.1l6.7-4.5V64l-6.7-4.5c-0.2-0.2-0.5-0.1-0.7,0.1s-0.1,0.5,0.1,0.7l7.5,5C24.3,65.5,24.4,65.5,24.5,65.5       z M87,48c1.1,0,2,0.9,2,2v10c0,1.1-0.9,2-2,2s-2-0.9-2-2V50C85,48.9,85.9,48,87,48z M87,63c1.7,0,3-1.3,3-3V50c0-1.7-1.3-3-3-3       s-3,1.3-3,3v10C84,61.7,85.3,63,87,63z M75,65.5c0.1,0,0.2,0,0.3-0.1l7.5-5c0.2-0.2,0.3-0.5,0.1-0.7s-0.5-0.3-0.7-0.1l-6.7,4.5       V45.9l6.7,4.5c0.2,0.2,0.5,0.1,0.7-0.1c0.2-0.2,0.1-0.5-0.1-0.7l-7.5-5c-0.2-0.1-0.4-0.1-0.5,0c-0.2,0.1-0.3,0.3-0.3,0.4v20       c0,0.2,0.1,0.4,0.3,0.4C74.8,65.5,74.9,65.5,75,65.5z M14,45C14,25.4,29.9,9.5,49.5,9.5S85,25.4,85,45c0,0.3-0.2,0.5-0.5,0.5       S84,45.3,84,45c0-19-15.5-34.5-34.5-34.5S15,26,15,45c0,0.3-0.2,0.5-0.5,0.5S14,45.3,14,45z"/>
				</g>
			</g>
		</g>
	</g>
</g>
</svg>