<?xml version="1.0" encoding="UTF-8"?>
<!-- Generator: Adobe Illustrator 22.1.0, SVG Export Plug-In . SVG Version: 6.00 Build 0)  -->
<svg version="1.1" id="Logo" xmlns="http://www.w3.org/2000/svg" xmlns:xlink="http://www.w3.org/1999/xlink" x="0px" y="0px" viewBox="0 0 760.2 760.2" style="enable-background:new 0 0 760.2 760.2;" xml:space="preserve">
<style type="text/css">
	.st0{fill:url(#SVGID_1_);}
	@keyframes spin {
	    from {transform:rotate(0deg);}
	    to {transform:rotate(360deg);}
	}
	svg {
	  position: absolute;
	  transform: translate(50%, 50%);
	  animation: spin 3s infinite linear;
		transition: 1s ease all;
	}
</style>
<linearGradient id="SVGID_1_" gradientUnits="userSpaceOnUse" x1="111.3218" y1="648.8352" x2="648.8352" y2="111.3218">
	<stop offset="0" style="stop-color:#06B07D"/>
	<stop offset="1" style="stop-color:#55BBEB"/>
</linearGradient>
<path class="st0" d="M380.1,760.2c-101.5,0-197-39.5-268.8-111.3S0,481.6,0,380.1s39.5-197,111.3-268.8S278.6,0,380.1,0  s197,39.5,268.8,111.3s111.3,167.2,111.3,268.8s-39.5,197-111.3,268.8S481.6,760.2,380.1,760.2z M380.1,10.5  c-98.7,0-191.5,38.4-261.3,108.2S10.5,281.4,10.5,380.1s38.4,191.5,108.2,261.3s162.6,108.2,261.3,108.2s191.5-38.4,261.3-108.2  s108.2-162.6,108.2-261.3s-38.4-191.5-108.2-261.3S478.8,10.5,380.1,10.5z"/>
</svg>